<?xml version="1.0" encoding="utf-8"?>
<!-- Svg Vector Icons : http://www.onlinewebfonts.com/icon -->
<!DOCTYPE svg PUBLIC "-//W3C//DTD SVG 1.1//EN" "http://www.w3.org/Graphics/SVG/1.1/DTD/svg11.dtd">
<svg version="1.1" xmlns="http://www.w3.org/2000/svg" xmlns:xlink="http://www.w3.org/1999/xlink" x="0px" y="0px" viewBox="0 0 1000 1000" enable-background="new 0 0 1000 1000" xml:space="preserve">
<metadata> Svg Vector Icons : http://www.onlinewebfonts.com/icon </metadata>
<g><g><path d="M509.2,259.8c-133.4,0-242,108.5-242,242c0,133.4,108.6,242,242,242c133.4,0,242-108.6,242-242C751.2,368.4,642.6,259.8,509.2,259.8z M509.2,695.4c-106.7,0-193.6-86.8-193.6-193.6c0-106.8,86.9-193.6,193.6-193.6c106.8,0,193.6,86.9,193.6,193.6C702.8,608.6,616,695.4,509.2,695.4z M485,143.6V42.7c0-13.4,10.8-24.2,24.2-24.2c13.3,0,24.2,10.8,24.2,24.2v100.8c0,13.3-10.9,24.2-24.2,24.2C495.8,167.8,485,156.9,485,143.6z M732.9,283.7c-9.5-9.4-9.5-24.8,0-34.2l86.7-86.7c9.5-9.4,24.8-9.4,34.2,0c9.5,9.5,9.5,24.8,0,34.2l-86.7,86.7c-4.7,4.7-10.9,7.1-17.1,7.1C743.9,290.8,737.7,288.4,732.9,283.7z M126,197c-9.4-9.4-9.4-24.8,0-34.2c9.5-9.4,24.8-9.4,34.2,0l86.7,86.7c9.4,9.5,9.4,24.8,0,34.2c-4.7,4.7-10.9,7.1-17.1,7.1c-6.2,0-12.4-2.4-17.1-7.1L126,197z M514.1,856.4v100.9c0,13.4-10.8,24.2-24.2,24.2c-13.4,0-24.2-10.9-24.2-24.2V856.4c0-13.4,10.8-24.2,24.2-24.2C503.3,832.2,514.1,843,514.1,856.4z M266.2,716.3c9.5,9.4,9.5,24.8,0,34.2l-86.7,86.7c-4.7,4.7-10.9,7.1-17.1,7.1c-6.2,0-12.4-2.4-17.1-7.1c-9.5-9.4-9.5-24.8,0-34.2l86.7-86.7C241.4,706.8,256.7,706.8,266.2,716.3z M873.1,803c9.5,9.5,9.5,24.8,0,34.2c-4.7,4.7-10.9,7.1-17.1,7.1c-6.2,0-12.4-2.4-17.1-7.1l-86.7-86.7c-9.5-9.5-9.5-24.8,0-34.2c9.5-9.5,24.7-9.5,34.2,0L873.1,803z M143.1,526.1H34.2c-13.4,0-24.2-10.9-24.2-24.2c0-13.3,10.8-24.2,24.2-24.2h108.9c13.4,0,24.2,10.9,24.2,24.2C167.3,515.2,156.5,526,143.1,526.1z M990,501.8c0,13.4-10.8,24.2-24.2,24.2H836.7c-13.4,0-24.2-10.9-24.2-24.2c0-13.4,10.8-24.2,24.2-24.2h129.1C979.2,477.6,990,488.5,990,501.8z"/></g><g></g><g></g><g></g><g></g><g></g><g></g><g></g><g></g><g></g><g></g><g></g><g></g><g></g><g></g><g></g></g>
</svg>